<?xml version="1.0" encoding="UTF-8" standalone="no"?>
<!DOCTYPE svg PUBLIC "-//W3C//DTD SVG 20010904//EN"
              "http://www.w3.org/TR/2001/REC-SVG-20010904/DTD/svg10.dtd">

<svg xmlns="http://www.w3.org/2000/svg" width="1.86in" height="1.86in" viewBox="0 0 558 558">
  <path id="mint1" fill="white" d="M 44.09,273.82
           C 50.00,158.00 137.18,42.55 279.99,43.02
             364.65,46.14 427.00,84.00 467.50,136.25
             498.25,174.00 512.65,226.53 514.38,275.12
             514.81,334.22 496.75,391.25 455.25,434.00
             416.42,479.22 360.20,512.74 279.83,514.00
             123.45,507.37 43.50,387.50 44.09,273.82 Z
           M 0.96,281.26
           C -2.20,140.25 108.25,2.25 280.00,0.00
             389.35,-0.68 471.50,59.00 522.00,140.25
             548.00,182.00 557.50,233.00 558.00,277.67
             556.25,314.21 554.50,345.75 537.72,385.81
             515.25,435.00 483.76,479.14 434.32,510.73
             395.33,534.67 353.00,557.00 280.02,557.98
             89.00,550.50 2.00,403.50 0.96,281.26 Z" />
  <path id="mint2" fill="#72B632" d="M 44.09,273.82
          C 50.00,158.00 137.18,42.55 279.99,43.02
            364.65,46.14 427.00,84.00 467.50,136.25
             498.25,174.00 512.65,226.53 514.38,275.12
             514.81,334.22 496.75,391.25 455.25,434.00
             416.42,479.22 360.20,512.74 279.83,514.00
             123.45,507.37 43.50,387.50 44.09,273.82 Z
           M 127.06,137.03
           C 127.06,137.03 127.00,335.00 127.00,335.00
             127.00,335.00 129.09,414.64 211.00,420.27
             211.00,420.27 353.00,420.00 353.00,420.00
             353.00,420.00 425.36,415.09 431.25,338.54
             431.25,338.54 432.00,221.18 432.00,220.18
             432.00,220.18 429.55,163.73 369.44,159.12
             369.44,159.12 339.50,156.50 323.00,176.50
             323.00,176.50 304.50,156.81 278.00,159.00
             277.00,159.00 219.00,160.27 214.09,223.91
             214.09,223.91 213.91,333.18 213.91,333.18
             213.91,333.18 258.00,333.09 258.00,333.09
             258.00,333.09 258.00,223.00 258.00,223.00
             258.00,223.00 258.55,202.64 279.45,202.91
             279.45,202.91 298.91,201.27 301.00,221.73
             301.00,221.73 301.00,332.91 301.00,332.91
             301.00,332.91 344.91,333.09 344.91,333.00
             344.91,332.91 344.91,222.36 344.91,222.36
             344.91,222.36 347.44,202.88 366.12,202.75
             366.12,202.75 384.62,201.00 388.39,221.26
             388.39,221.26 388.73,334.45 388.73,334.45
             388.73,334.45 388.88,372.25 347.09,376.82
             347.09,376.82 209.88,376.62 209.88,376.62
             209.88,376.62 173.75,374.62 170.62,333.88
             170.62,333.88 170.82,137.36 170.82,137.36
             170.82,137.36 127.06,137.03 127.06,137.03 Z" />
  <path id="mint3" fill="none" d="M 127.06,137.03
           C 127.06,137.03 127.00,335.00 127.00,335.00
             127.00,335.00 129.09,414.64 211.00,420.27
             211.00,420.27 353.00,420.00 353.00,420.00
             353.00,420.00 425.36,415.09 431.25,338.54
             431.25,338.54 432.00,221.18 432.00,220.18
             432.00,220.18 429.55,163.73 369.44,159.12
             369.44,159.12 339.50,156.50 323.00,176.50
             323.00,176.50 304.50,156.81 278.00,159.00
             277.00,159.00 219.00,160.27 214.09,223.91
             214.09,223.91 213.91,333.18 213.91,333.18
             213.91,333.18 258.00,333.09 258.00,333.09
             258.00,333.09 258.00,223.00 258.00,223.00
             258.00,223.00 258.55,202.64 279.45,202.91
             279.45,202.91 298.91,201.27 301.00,221.73
             301.00,221.73 301.00,332.91 301.00,332.91
             301.00,332.91 344.91,333.09 344.91,333.00
             344.91,332.91 344.91,222.36 344.91,222.36
             344.91,222.36 347.44,202.88 366.12,202.75
             366.12,202.75 384.62,201.00 388.39,221.26
             388.39,221.26 388.73,334.45 388.73,334.45
             388.73,334.45 388.88,372.25 347.09,376.82
             347.09,376.82 209.88,376.62 209.88,376.62
             209.88,376.62 173.75,374.62 170.62,333.88
             170.62,333.88 170.82,137.36 170.82,137.36
             170.82,137.36 127.06,137.03 127.06,137.03 Z" />
</svg>
